<svg id="Layer_1" data-name="Layer 1" xmlns="http://www.w3.org/2000/svg" viewBox="0 0 84 84"><title>library f</title><circle cx="65" cy="26.5" r="5.94" style="fill:#fff"/><rect x="8.46" y="19.06" width="73.09" height="50.96" rx="4" style="fill:#3a3a3a"/><rect x="8.46" y="19.06" width="73.09" height="50.96" rx="4" style="fill:none;stroke:#fff;stroke-miterlimit:10"/><rect x="5.46" y="16.06" width="73.09" height="50.96" rx="4" style="fill:#4f4f4f"/><rect x="5.46" y="16.06" width="73.09" height="50.96" rx="4" style="fill:none;stroke:#fff;stroke-miterlimit:10"/><path d="M25.74,29.5a7.74,7.74,0,0,1-14.5,3.76,7.58,7.58,0,0,0,3.76,1,7.74,7.74,0,0,0,7.74-7.74,7.63,7.63,0,0,0-1-3.76A7.73,7.73,0,0,1,25.74,29.5Z" style="fill:#fff"/><path d="M11.24,66.89,19,48.29A2.25,2.25,0,0,1,23,48.17l1,1.7a2.24,2.24,0,0,0,4-.27l3.16-7.36a2.25,2.25,0,0,1,4.17.09L45.16,67" style="fill:#fff"/><circle cx="57.55" cy="40.53" r="13.03" style="fill:#fff"/><path d="M64.15,67.21S64,58.11,60,52.61H55.14C51.07,58.11,51,67.21,51,67.21Z" style="fill:#fff"/><path d="M50.12,47.59l.8.37a16.47,16.47,0,0,0,13.32.14l1.19-.51" style="fill:#4f4f4f"/></svg>