<svg id="Layer_1" data-name="Layer 1" xmlns="http://www.w3.org/2000/svg" viewBox="0 0 84 84"><title>settings f</title><circle cx="42" cy="42" r="10.1" transform="translate(-6.18 76.73) rotate(-80.78)" style="fill:#fff;stroke:#000;stroke-miterlimit:10;stroke-width:0.9384615384615884px"/><circle cx="42" cy="42" r="10.1" transform="translate(-6.18 76.73) rotate(-80.78)" style="fill:#fff"/><path d="M68.55,45.76a2.56,2.56,0,0,0,2-2.4V40.64a2.58,2.58,0,0,0-2-2.41L62.67,37a3.44,3.44,0,0,1-2.44-1.79c-.27-.76-.7-3.39-.09-4.31l3.29-5a2.58,2.58,0,0,0-.31-3.09l-1.93-1.92a2.55,2.55,0,0,0-3.08-.31l-5,3.29a3.48,3.48,0,0,1-3,.46c-.71-.35-2.9-1.91-3.13-3l-1.21-5.88a2.58,2.58,0,0,0-2.41-2H40.64a2.58,2.58,0,0,0-2.41,2L37,21.33a3.49,3.49,0,0,1-1.79,2.44c-.77.27-3.4.69-4.32.09l-5-3.29a2.55,2.55,0,0,0-3.08.31L20.88,22.8a2.58,2.58,0,0,0-.31,3.09l3.29,5a3.47,3.47,0,0,1,.47,3c-.35.72-1.92,2.91-3,3.13l-5.88,1.22a2.58,2.58,0,0,0-2,2.41v2.72a2.56,2.56,0,0,0,2,2.4L21.33,47a3.49,3.49,0,0,1,2.44,1.79c.27.77.7,3.4.09,4.32l-3.29,5a2.55,2.55,0,0,0,.32,3.08l1.91,1.92a2.59,2.59,0,0,0,3.09.31l5-3.29a3.46,3.46,0,0,1,3-.47c.71.35,2.9,1.92,3.13,3l1.21,5.88a2.58,2.58,0,0,0,2.41,2h2.72a2.58,2.58,0,0,0,2.41-2L47,62.67a3.54,3.54,0,0,1,1.79-2.45c.77-.26,3.4-.69,4.32-.08l5,3.29a2.59,2.59,0,0,0,3.09-.31l1.91-1.92a2.55,2.55,0,0,0,.32-3.08l-3.29-5a3.49,3.49,0,0,1-.47-3c.35-.71,1.92-2.9,3-3.13ZM42,52.1A10.1,10.1,0,1,1,52.1,42,10.1,10.1,0,0,1,42,52.1Z" style="fill:#4f4f4f"/></svg>