<svg id="Layer_1" data-name="Layer 1" xmlns="http://www.w3.org/2000/svg" viewBox="0 0 84 84"><title>settings f</title><circle cx="42" cy="42" r="10.1" transform="translate(-6.18 76.73) rotate(-80.78)" style="fill:none"/><path d="M70.51,45.36V38.64l-9.8-2a18.81,18.81,0,0,0-1.67-4l5.49-8.36-4.75-4.75L51.42,25a18.81,18.81,0,0,0-4-1.67l-2-9.8H38.64l-2,9.8a18.81,18.81,0,0,0-4,1.67l-8.36-5.49-4.75,4.75L25,32.58a18.81,18.81,0,0,0-1.67,4l-9.8,2v6.72l9.8,2a18.81,18.81,0,0,0,1.67,4l-5.49,8.37,4.75,4.74L32.58,59a18.81,18.81,0,0,0,4,1.67l2,9.8h6.72l2-9.8a18.81,18.81,0,0,0,4-1.67l8.36,5.49,4.75-4.74L59,51.42a18.81,18.81,0,0,0,1.67-4ZM42,52.1A10.1,10.1,0,1,1,52.1,42,10.1,10.1,0,0,1,42,52.1Z" style="fill:#fff"/></svg>